<?xml version="1.0" encoding="UTF-8"?>
<!DOCTYPE svg PUBLIC "-//W3C//DTD SVG 1.1//EN" "http://www.w3.org/Graphics/SVG/1.1/DTD/svg11.dtd">
<svg xmlns="http://www.w3.org/2000/svg" version="1.1" width="3176px" height="4489px" style="shape-rendering:geometricPrecision; text-rendering:geometricPrecision; image-rendering:optimizeQuality; fill-rule:evenodd; clip-rule:evenodd" xmlns:xlink="http://www.w3.org/1999/xlink">
<g><path style="opacity:1" fill="#000000" d="M 5.5,660.5 C 1060.4,660.167 2115.24,660.5 3170,661.5C 3170.83,1716.74 3170.67,2771.9 3169.5,3827C 2114.6,3827.83 1059.76,3827.67 5,3826.5C 4.16691,2771.1 4.33358,1715.76 5.5,660.5 Z M 260.5,847.5 C 266.893,849.645 267.059,852.312 261,855.5C 256.531,852.953 256.364,850.286 260.5,847.5 Z M 570.5,847.5 C 576.501,849.018 577.001,851.685 572,855.5C 567.323,853.254 566.823,850.587 570.5,847.5 Z M 601.5,847.5 C 607.209,849.24 607.709,851.907 603,855.5C 597.789,853.472 597.289,850.805 601.5,847.5 Z M 911.5,847.5 C 914.352,847.352 916.019,848.686 916.5,851.5C 914.167,856.833 911.833,856.833 909.5,851.5C 909.752,849.927 910.418,848.594 911.5,847.5 Z M 942.5,847.5 C 948.496,849.006 948.996,851.672 944,855.5C 939.323,853.254 938.823,850.587 942.5,847.5 Z M 1252.5,847.5 C 1255.35,847.352 1257.02,848.686 1257.5,851.5C 1255,856.89 1252.67,856.723 1250.5,851C 1250.98,849.697 1251.64,848.531 1252.5,847.5 Z M 1283.5,847.5 C 1286.35,847.352 1288.02,848.686 1288.5,851.5C 1286.17,856.833 1283.83,856.833 1281.5,851.5C 1281.75,849.927 1282.42,848.594 1283.5,847.5 Z M 1594.5,847.5 C 1600.79,849.755 1600.96,852.422 1595,855.5C 1590.53,852.953 1590.36,850.286 1594.5,847.5 Z M 1624.5,847.5 C 1627.35,847.352 1629.02,848.686 1629.5,851.5C 1627,856.89 1624.67,856.723 1622.5,851C 1622.98,849.697 1623.64,848.531 1624.5,847.5 Z M 1935.5,847.5 C 1941.21,849.24 1941.71,851.907 1937,855.5C 1932.32,853.254 1931.82,850.587 1935.5,847.5 Z M 1966.5,847.5 C 1972.79,849.755 1972.96,852.422 1967,855.5C 1962.53,852.953 1962.36,850.286 1966.5,847.5 Z M 2276.5,847.5 C 2282.5,849.006 2283,851.672 2278,855.5C 2274,853.496 2273.5,850.829 2276.5,847.5 Z M 2307.5,847.5 C 2313.21,849.24 2313.71,851.907 2309,855.5C 2304.32,853.254 2303.82,850.587 2307.5,847.5 Z M 2617.5,847.5 C 2620.35,847.352 2622.02,848.686 2622.5,851.5C 2620,856.89 2617.67,856.723 2615.5,851C 2615.98,849.697 2616.64,848.531 2617.5,847.5 Z M 2648.5,847.5 C 2654.5,849.006 2655,851.672 2650,855.5C 2646,853.496 2645.5,850.829 2648.5,847.5 Z M 2959.5,847.5 C 2965.89,849.645 2966.06,852.312 2960,855.5C 2955.53,852.953 2955.36,850.286 2959.5,847.5 Z M 246.5,863.5 C 251.493,863.997 252.493,866.164 249.5,870C 244.148,870.175 243.148,868.009 246.5,863.5 Z M 586.5,863.5 C 592.096,864.61 592.762,866.944 588.5,870.5C 584.167,869.172 583.501,866.838 586.5,863.5 Z M 927.5,863.5 C 932.682,863.786 934.016,865.953 931.5,870C 925.738,870.418 924.404,868.251 927.5,863.5 Z M 1268.5,863.5 C 1271.83,862.833 1273.83,864.167 1274.5,867.5C 1272.4,870.984 1269.9,871.318 1267,868.5C 1266.88,866.718 1267.38,865.052 1268.5,863.5 Z M 1610.5,863.5 C 1615.49,863.997 1616.49,866.164 1613.5,870C 1610.47,871.075 1608.47,870.075 1607.5,867C 1608.36,865.641 1609.36,864.474 1610.5,863.5 Z M 1951.5,863.5 C 1956.49,863.997 1957.49,866.164 1954.5,870C 1949.15,870.175 1948.15,868.009 1951.5,863.5 Z M 2292.5,863.5 C 2295.08,863.569 2297.08,864.735 2298.5,867C 2296.66,870.918 2294.16,871.418 2291,868.5C 2290.39,866.505 2290.89,864.838 2292.5,863.5 Z M 2633.5,863.5 C 2638.65,863.654 2639.98,865.82 2637.5,870C 2631.74,870.418 2630.4,868.251 2633.5,863.5 Z M 2974.5,863.5 C 2980.02,863.473 2981.35,865.64 2978.5,870C 2973.18,870.18 2971.84,868.014 2974.5,863.5 Z M 247.5,1173.5 C 252.819,1176.12 252.819,1178.79 247.5,1181.5C 243.533,1178.74 243.533,1176.08 247.5,1173.5 Z M 587.5,1173.5 C 592.586,1175.85 592.753,1178.51 588,1181.5C 583.536,1179.01 583.369,1176.34 587.5,1173.5 Z M 928.5,1173.5 C 933.341,1175.54 933.675,1178.21 929.5,1181.5C 924.691,1179.26 924.357,1176.59 928.5,1173.5 Z M 1269.5,1173.5 C 1275.53,1175.54 1275.87,1178.21 1270.5,1181.5C 1265.69,1179.26 1265.36,1176.59 1269.5,1173.5 Z M 1610.5,1173.5 C 1616.53,1175.54 1616.87,1178.21 1611.5,1181.5C 1607.93,1179.23 1607.6,1176.57 1610.5,1173.5 Z M 1952.5,1173.5 C 1957.59,1175.85 1957.75,1178.51 1953,1181.5C 1948.54,1179.01 1948.37,1176.34 1952.5,1173.5 Z M 2293.5,1173.5 C 2298.34,1175.54 2298.67,1178.21 2294.5,1181.5C 2289.61,1179.28 2289.27,1176.62 2293.5,1173.5 Z M 2634.5,1173.5 C 2640.53,1175.54 2640.87,1178.21 2635.5,1181.5C 2630.69,1179.26 2630.36,1176.59 2634.5,1173.5 Z M 2975.5,1173.5 C 2981.53,1175.54 2981.87,1178.21 2976.5,1181.5C 2971.69,1179.26 2971.36,1176.59 2975.5,1173.5 Z M 260.5,1189.5 C 266.034,1191.82 266.367,1194.49 261.5,1197.5C 256.691,1195.26 256.357,1192.59 260.5,1189.5 Z M 570.5,1189.5 C 576.532,1191.54 576.865,1194.21 571.5,1197.5C 567.933,1195.23 567.6,1192.57 570.5,1189.5 Z M 601.5,1189.5 C 607.564,1191.6 607.898,1194.26 602.5,1197.5C 597.723,1195.3 597.389,1192.64 601.5,1189.5 Z M 912.5,1189.5 C 917.594,1191.87 917.761,1194.54 913,1197.5C 908.544,1195.03 908.377,1192.36 912.5,1189.5 Z M 942.5,1189.5 C 948.532,1191.54 948.865,1194.21 943.5,1197.5C 939.933,1195.23 939.6,1192.57 942.5,1189.5 Z M 1253.5,1189.5 C 1258.35,1191.58 1258.69,1194.25 1254.5,1197.5C 1249.52,1195.44 1249.18,1192.77 1253.5,1189.5 Z M 1284.5,1189.5 C 1289.59,1191.87 1289.76,1194.54 1285,1197.5C 1280.54,1195.03 1280.38,1192.36 1284.5,1189.5 Z M 1594.5,1189.5 C 1600.53,1191.54 1600.87,1194.21 1595.5,1197.5C 1590.69,1195.26 1590.36,1192.59 1594.5,1189.5 Z M 1625.5,1189.5 C 1630.34,1191.54 1630.67,1194.21 1626.5,1197.5C 1621.52,1195.44 1621.18,1192.77 1625.5,1189.5 Z M 1935.5,1189.5 C 1941.53,1191.54 1941.87,1194.21 1936.5,1197.5C 1931.69,1195.26 1931.36,1192.59 1935.5,1189.5 Z M 1966.5,1189.5 C 1972.53,1191.54 1972.87,1194.21 1967.5,1197.5C 1962.72,1195.3 1962.39,1192.64 1966.5,1189.5 Z M 2277.5,1189.5 C 2282.82,1192.12 2282.82,1194.79 2277.5,1197.5C 2273.53,1194.74 2273.53,1192.08 2277.5,1189.5 Z M 2307.5,1189.5 C 2313.53,1191.54 2313.87,1194.21 2308.5,1197.5C 2307.02,1196.52 2305.69,1195.35 2304.5,1194C 2305.39,1192.39 2306.39,1190.89 2307.5,1189.5 Z M 2618.5,1189.5 C 2623.35,1191.58 2623.69,1194.25 2619.5,1197.5C 2614.61,1195.28 2614.27,1192.62 2618.5,1189.5 Z M 2649.5,1189.5 C 2654.82,1192.12 2654.82,1194.79 2649.5,1197.5C 2645.53,1194.74 2645.53,1192.08 2649.5,1189.5 Z M 2959.5,1189.5 C 2965.03,1191.82 2965.37,1194.49 2960.5,1197.5C 2955.69,1195.26 2955.36,1192.59 2959.5,1189.5 Z M 246.5,1205.5 C 252.496,1207.01 252.996,1209.67 248,1213.5C 243.999,1211.5 243.499,1208.83 246.5,1205.5 Z M 586.5,1205.5 C 589.352,1205.35 591.019,1206.69 591.5,1209.5C 589.167,1214.83 586.833,1214.83 584.5,1209.5C 584.752,1207.93 585.418,1206.59 586.5,1205.5 Z M 928.5,1205.5 C 934.893,1207.65 935.059,1210.31 929,1213.5C 924.564,1211 924.398,1208.33 928.5,1205.5 Z M 1269.5,1205.5 C 1275.5,1207.49 1275.83,1210.16 1270.5,1213.5C 1265.66,1211.21 1265.33,1208.54 1269.5,1205.5 Z M 1610.5,1205.5 C 1616.52,1207.07 1617.02,1209.74 1612,1213.5C 1607.32,1211.25 1606.82,1208.59 1610.5,1205.5 Z M 1951.5,1205.5 C 1954.35,1205.35 1956.02,1206.69 1956.5,1209.5C 1954.17,1214.83 1951.83,1214.83 1949.5,1209.5C 1949.75,1207.93 1950.42,1206.59 1951.5,1205.5 Z M 2293.5,1205.5 C 2298.57,1207.81 2298.74,1210.47 2294,1213.5C 2289.7,1210.85 2289.53,1208.19 2293.5,1205.5 Z M 2634.5,1205.5 C 2640.5,1207.49 2640.83,1210.16 2635.5,1213.5C 2630.66,1211.21 2630.33,1208.54 2634.5,1205.5 Z M 2975.5,1205.5 C 2981.21,1207.24 2981.71,1209.91 2977,1213.5C 2971.82,1211.52 2971.32,1208.85 2975.5,1205.5 Z M 247.5,1515.5 C 252.42,1518.04 252.586,1520.7 248,1523.5C 243.544,1521.03 243.377,1518.36 247.5,1515.5 Z M 587.5,1515.5 C 592.594,1517.87 592.761,1520.54 588,1523.5C 583.544,1521.03 583.377,1518.36 587.5,1515.5 Z M 928.5,1515.5 C 934.397,1518.14 934.564,1520.8 929,1523.5C 927.167,1523 926,1521.83 925.5,1520C 926.315,1518.36 927.315,1516.86 928.5,1515.5 Z M 1611.5,1515.5 C 1616.44,1518.09 1616.61,1520.76 1612,1523.5C 1606.43,1521.22 1606.26,1518.55 1611.5,1515.5 Z M 1952.5,1515.5 C 1957.42,1518.04 1957.59,1520.7 1953,1523.5C 1948.54,1521.03 1948.38,1518.36 1952.5,1515.5 Z M 2293.5,1515.5 C 2298.59,1517.87 2298.76,1520.54 2294,1523.5C 2292.17,1523 2291,1521.83 2290.5,1520C 2291.31,1518.36 2292.31,1516.86 2293.5,1515.5 Z M 1268.5,1516.5 C 1275.4,1517.28 1276.07,1519.61 1270.5,1523.5C 1266.5,1521.89 1265.84,1519.55 1268.5,1516.5 Z M 2633.5,1516.5 C 2636.55,1515.92 2638.55,1517.09 2639.5,1520C 2636.4,1524.77 2633.73,1524.61 2631.5,1519.5C 2632.19,1518.48 2632.86,1517.48 2633.5,1516.5 Z M 2974.5,1516.5 C 2979.98,1516.44 2981.31,1518.61 2978.5,1523C 2973.12,1523.07 2971.79,1520.9 2974.5,1516.5 Z M 912.5,1531.5 C 917.42,1534.04 917.586,1536.7 913,1539.5C 908.544,1537.03 908.377,1534.36 912.5,1531.5 Z M 1284.5,1531.5 C 1289.42,1534.04 1289.59,1536.7 1285,1539.5C 1280.54,1537.03 1280.38,1534.36 1284.5,1531.5 Z M 2277.5,1531.5 C 2282.44,1534.09 2282.61,1536.76 2278,1539.5C 2273.54,1537.03 2273.38,1534.36 2277.5,1531.5 Z M 2618.5,1531.5 C 2623.59,1533.87 2623.76,1536.54 2619,1539.5C 2614.59,1537.18 2614.43,1534.51 2618.5,1531.5 Z M 2649.5,1531.5 C 2654.44,1534.09 2654.61,1536.76 2650,1539.5C 2645.54,1537.03 2645.38,1534.36 2649.5,1531.5 Z M 259.5,1532.5 C 262.55,1531.92 264.55,1533.09 265.5,1536C 263.492,1539.68 260.992,1540.18 258,1537.5C 257.387,1535.5 257.887,1533.84 259.5,1532.5 Z M 569.5,1532.5 C 575.016,1532.47 576.349,1534.64 573.5,1539C 568.428,1538.8 567.094,1536.64 569.5,1532.5 Z M 600.5,1532.5 C 605.975,1532.44 607.309,1534.61 604.5,1539C 599.124,1539.07 597.791,1536.9 600.5,1532.5 Z M 941.5,1532.5 C 947.016,1532.47 948.349,1534.64 945.5,1539C 940.428,1538.8 939.094,1536.64 941.5,1532.5 Z M 1252.5,1532.5 C 1257.75,1532.64 1258.75,1534.81 1255.5,1539C 1250.38,1538.82 1249.38,1536.66 1252.5,1532.5 Z M 1593.5,1532.5 C 1596.55,1531.92 1598.55,1533.09 1599.5,1536C 1596.4,1540.77 1593.73,1540.61 1591.5,1535.5C 1592.19,1534.48 1592.86,1533.48 1593.5,1532.5 Z M 1624.5,1532.5 C 1627.55,1531.92 1629.55,1533.09 1630.5,1536C 1628.45,1539.7 1625.95,1540.2 1623,1537.5C 1622.39,1535.5 1622.89,1533.84 1624.5,1532.5 Z M 1934.5,1532.5 C 1939.98,1532.44 1941.31,1534.61 1938.5,1539C 1933.12,1539.07 1931.79,1536.9 1934.5,1532.5 Z M 1965.5,1532.5 C 1968.55,1531.92 1970.55,1533.09 1971.5,1536C 1968.4,1540.77 1965.73,1540.61 1963.5,1535.5C 1964.19,1534.48 1964.86,1533.48 1965.5,1532.5 Z M 2306.5,1532.5 C 2312.02,1532.47 2313.35,1534.64 2310.5,1539C 2305.12,1539.07 2303.79,1536.9 2306.5,1532.5 Z M 2958.5,1532.5 C 2961.55,1531.92 2963.55,1533.09 2964.5,1536C 2962.49,1539.68 2959.99,1540.18 2957,1537.5C 2956.39,1535.5 2956.89,1533.84 2958.5,1532.5 Z M 247.5,1547.5 C 252.42,1550.04 252.586,1552.7 248,1555.5C 243.544,1553.03 243.377,1550.36 247.5,1547.5 Z M 587.5,1547.5 C 592.594,1549.87 592.761,1552.54 588,1555.5C 583.544,1553.03 583.377,1550.36 587.5,1547.5 Z M 928.5,1547.5 C 934.06,1549.86 934.393,1552.53 929.5,1555.5C 924.723,1553.3 924.389,1550.64 928.5,1547.5 Z M 1269.5,1547.5 C 1275.56,1549.6 1275.9,1552.26 1270.5,1555.5C 1265.72,1553.3 1265.39,1550.64 1269.5,1547.5 Z M 1611.5,1547.5 C 1616.81,1550.13 1616.81,1552.79 1611.5,1555.5C 1606.65,1552.97 1606.65,1550.3 1611.5,1547.5 Z M 1952.5,1547.5 C 1957.59,1549.87 1957.76,1552.54 1953,1555.5C 1948.54,1553.03 1948.38,1550.36 1952.5,1547.5 Z M 2293.5,1547.5 C 2298.35,1549.58 2298.69,1552.25 2294.5,1555.5C 2289.52,1553.44 2289.18,1550.77 2293.5,1547.5 Z M 2634.5,1547.5 C 2640.53,1549.54 2640.87,1552.21 2635.5,1555.5C 2630.72,1553.3 2630.39,1550.64 2634.5,1547.5 Z M 2975.5,1547.5 C 2981.56,1549.6 2981.9,1552.26 2976.5,1555.5C 2971.69,1553.26 2971.36,1550.59 2975.5,1547.5 Z M 246.5,1858.5 C 251.493,1859 252.493,1861.16 249.5,1865C 246.75,1865.62 244.75,1864.62 243.5,1862C 244.365,1860.64 245.365,1859.47 246.5,1858.5 Z M 586.5,1858.5 C 591.493,1859 592.493,1861.16 589.5,1865C 584.382,1864.82 583.382,1862.66 586.5,1858.5 Z M 927.5,1858.5 C 932.651,1858.65 933.984,1860.82 931.5,1865C 925.738,1865.42 924.404,1863.25 927.5,1858.5 Z M 1268.5,1858.5 C 1273.65,1858.65 1274.98,1860.82 1272.5,1865C 1267.18,1865.18 1265.84,1863.01 1268.5,1858.5 Z M 1609.5,1858.5 C 1615.02,1858.47 1616.35,1860.64 1613.5,1865C 1608.18,1865.18 1606.84,1863.01 1609.5,1858.5 Z M 1951.5,1858.5 C 1956.49,1859 1957.49,1861.16 1954.5,1865C 1949.38,1864.82 1948.38,1862.66 1951.5,1858.5 Z M 2292.5,1858.5 C 2295.26,1858.38 2297.26,1859.55 2298.5,1862C 2296.49,1865.68 2293.99,1866.18 2291,1863.5C 2290.39,1861.5 2290.89,1859.84 2292.5,1858.5 Z M 2633.5,1858.5 C 2638.65,1858.65 2639.98,1860.82 2637.5,1865C 2631.74,1865.42 2630.4,1863.25 2633.5,1858.5 Z M 2974.5,1858.5 C 2980.02,1858.47 2981.35,1860.64 2978.5,1865C 2973.18,1865.18 2971.84,1863.01 2974.5,1858.5 Z M 259.5,1874.5 C 264.651,1874.65 265.984,1876.82 263.5,1881C 257.738,1881.42 256.404,1879.25 259.5,1874.5 Z M 570.5,1874.5 C 575.493,1875 576.493,1877.16 573.5,1881C 570.469,1882.07 568.469,1881.07 567.5,1878C 568.365,1876.64 569.365,1875.47 570.5,1874.5 Z M 600.5,1874.5 C 603.833,1873.83 605.833,1875.17 606.5,1878.5C 603.567,1882.6 600.901,1882.43 598.5,1878C 599.305,1876.89 599.972,1875.72 600.5,1874.5 Z M 911.5,1874.5 C 916.493,1875 917.493,1877.16 914.5,1881C 909.382,1880.82 908.382,1878.66 911.5,1874.5 Z M 942.5,1874.5 C 947.493,1875 948.493,1877.16 945.5,1881C 942.469,1882.07 940.469,1881.07 939.5,1878C 940.365,1876.64 941.365,1875.47 942.5,1874.5 Z M 1252.5,1874.5 C 1257.68,1874.79 1259.02,1876.95 1256.5,1881C 1250.74,1881.42 1249.4,1879.25 1252.5,1874.5 Z M 1283.5,1874.5 C 1288.49,1875 1289.49,1877.16 1286.5,1881C 1281.38,1880.82 1280.38,1878.66 1283.5,1874.5 Z M 1593.5,1874.5 C 1598.65,1874.65 1599.98,1876.82 1597.5,1881C 1591.74,1881.42 1590.4,1879.25 1593.5,1874.5 Z M 1624.5,1874.5 C 1629.68,1874.79 1631.02,1876.95 1628.5,1881C 1622.74,1881.42 1621.4,1879.25 1624.5,1874.5 Z M 1934.5,1874.5 C 1940.02,1874.47 1941.35,1876.64 1938.5,1881C 1933.18,1881.18 1931.84,1879.01 1934.5,1874.5 Z M 1965.5,1874.5 C 1970.65,1874.65 1971.98,1876.82 1969.5,1881C 1963.74,1881.42 1962.4,1879.25 1965.5,1874.5 Z M 2276.5,1874.5 C 2281.49,1875 2282.49,1877.16 2279.5,1881C 2276.47,1882.07 2274.47,1881.07 2273.5,1878C 2274.71,1876.96 2275.71,1875.79 2276.5,1874.5 Z M 2306.5,1874.5 C 2312.02,1874.47 2313.35,1876.64 2310.5,1881C 2305.18,1881.18 2303.84,1879.01 2306.5,1874.5 Z M 2617.5,1874.5 C 2622.49,1875 2623.49,1877.16 2620.5,1881C 2615.38,1880.82 2614.38,1878.66 2617.5,1874.5 Z M 2648.5,1874.5 C 2653.49,1875 2654.49,1877.16 2651.5,1881C 2646.15,1881.18 2645.15,1879.01 2648.5,1874.5 Z M 2958.5,1874.5 C 2963.65,1874.65 2964.98,1876.82 2962.5,1881C 2956.74,1881.42 2955.4,1879.25 2958.5,1874.5 Z M 245.5,1890.5 C 251.016,1890.47 252.349,1892.64 249.5,1897C 244.791,1897.08 243.458,1894.92 245.5,1890.5 Z M 586.5,1890.5 C 591.747,1890.64 592.747,1892.81 589.5,1897C 584.382,1896.82 583.382,1894.66 586.5,1890.5 Z M 927.5,1890.5 C 930.55,1889.92 932.55,1891.09 933.5,1894C 931.492,1897.68 928.992,1898.18 926,1895.5C 925.387,1893.5 925.887,1891.84 927.5,1890.5 Z M 1268.5,1890.5 C 1273.98,1890.44 1275.31,1892.61 1272.5,1897C 1269.19,1898.16 1267.19,1897 1266.5,1893.5C 1267.19,1892.48 1267.86,1891.48 1268.5,1890.5 Z M 1609.5,1890.5 C 1615.02,1890.47 1616.35,1892.64 1613.5,1897C 1608.12,1897.07 1606.79,1894.9 1609.5,1890.5 Z M 1950.5,1890.5 C 1956.02,1890.47 1957.35,1892.64 1954.5,1897C 1949.79,1897.08 1948.46,1894.92 1950.5,1890.5 Z M 2292.5,1890.5 C 2295.55,1889.92 2297.55,1891.09 2298.5,1894C 2296.45,1897.7 2293.95,1898.2 2291,1895.5C 2290.39,1893.5 2290.89,1891.84 2292.5,1890.5 Z M 2633.5,1890.5 C 2636.55,1889.92 2638.55,1891.09 2639.5,1894C 2636.4,1898.77 2633.73,1898.61 2631.5,1893.5C 2632.19,1892.48 2632.86,1891.48 2633.5,1890.5 Z M 2974.5,1890.5 C 2980.02,1890.47 2981.35,1892.64 2978.5,1897C 2973.12,1897.07 2971.79,1894.9 2974.5,1890.5 Z M 246.5,2200.5 C 252.496,2202.01 252.996,2204.67 248,2208.5C 243.999,2206.5 243.499,2203.83 246.5,2200.5 Z M 586.5,2200.5 C 589.352,2200.35 591.019,2201.69 591.5,2204.5C 589.167,2209.83 586.833,2209.83 584.5,2204.5C 584.752,2202.93 585.418,2201.59 586.5,2200.5 Z M 927.5,2200.5 C 934.648,2202.11 935.148,2204.78 929,2208.5C 925.192,2206.29 924.692,2203.62 927.5,2200.5 Z M 1269.5,2200.5 C 1274.03,2201.37 1275.03,2203.54 1272.5,2207C 1266.14,2207.12 1265.14,2204.95 1269.5,2200.5 Z M 1610.5,2200.5 C 1616.48,2201.95 1616.98,2204.62 1612,2208.5C 1607.32,2206.25 1606.82,2203.59 1610.5,2200.5 Z M 1951.5,2200.5 C 1957.5,2202.01 1958,2204.67 1953,2208.5C 1949,2206.5 1948.5,2203.83 1951.5,2200.5 Z M 2292.5,2200.5 C 2295.35,2200.35 2297.02,2201.69 2297.5,2204.5C 2295,2209.89 2292.67,2209.72 2290.5,2204C 2290.98,2202.7 2291.64,2201.53 2292.5,2200.5 Z M 2633.5,2200.5 C 2638.68,2200.79 2640.02,2202.95 2637.5,2207C 2631.78,2207.45 2630.45,2205.29 2633.5,2200.5 Z M 2975.5,2200.5 C 2978.32,2200.32 2979.99,2201.65 2980.5,2204.5C 2977.57,2208.6 2974.9,2208.43 2972.5,2204C 2973.36,2202.64 2974.36,2201.47 2975.5,2200.5 Z M 260.5,2216.5 C 266.893,2218.65 267.059,2221.31 261,2224.5C 256.531,2221.95 256.364,2219.29 260.5,2216.5 Z M 570.5,2216.5 C 576.476,2217.95 576.976,2220.62 572,2224.5C 567.323,2222.25 566.823,2219.59 570.5,2216.5 Z M 601.5,2216.5 C 607.209,2218.24 607.709,2220.91 603,2224.5C 597.789,2222.47 597.289,2219.81 601.5,2216.5 Z M 911.5,2216.5 C 914.352,2216.35 916.019,2217.69 916.5,2220.5C 914.167,2225.83 911.833,2225.83 909.5,2220.5C 909.752,2218.93 910.418,2217.59 911.5,2216.5 Z M 942.5,2216.5 C 948.496,2218.01 948.996,2220.67 944,2224.5C 939.323,2222.25 938.823,2219.59 942.5,2216.5 Z M 1252.5,2216.5 C 1255.35,2216.35 1257.02,2217.69 1257.5,2220.5C 1255,2225.89 1252.67,2225.72 1250.5,2220C 1250.98,2218.7 1251.64,2217.53 1252.5,2216.5 Z M 1283.5,2216.5 C 1286.35,2216.35 1288.02,2217.69 1288.5,2220.5C 1286.17,2225.83 1283.83,2225.83 1281.5,2220.5C 1281.75,2218.93 1282.42,2217.59 1283.5,2216.5 Z M 1594.5,2216.5 C 1600.95,2218.6 1601.11,2221.27 1595,2224.5C 1590.53,2221.95 1590.36,2219.29 1594.5,2216.5 Z M 1624.5,2216.5 C 1627.35,2216.35 1629.02,2217.69 1629.5,2220.5C 1627.04,2225.94 1624.71,2225.78 1622.5,2220C 1622.98,2218.7 1623.64,2217.53 1624.5,2216.5 Z M 1935.5,2216.5 C 1941.21,2218.24 1941.71,2220.91 1937,2224.5C 1932.29,2222.21 1931.79,2219.54 1935.5,2216.5 Z M 1966.5,2216.5 C 1972.79,2218.75 1972.96,2221.42 1967,2224.5C 1962.53,2221.95 1962.36,2219.29 1966.5,2216.5 Z M 2276.5,2216.5 C 2282.5,2218.01 2283,2220.67 2278,2224.5C 2274,2222.5 2273.5,2219.83 2276.5,2216.5 Z M 2307.5,2216.5 C 2313.21,2218.24 2313.71,2220.91 2309,2224.5C 2304.32,2222.25 2303.82,2219.59 2307.5,2216.5 Z M 2617.5,2216.5 C 2620.35,2216.35 2622.02,2217.69 2622.5,2220.5C 2620,2225.89 2617.67,2225.72 2615.5,2220C 2615.98,2218.7 2616.64,2217.53 2617.5,2216.5 Z M 2648.5,2216.5 C 2654.5,2218.01 2655,2220.67 2650,2224.5C 2646,2222.5 2645.5,2219.83 2648.5,2216.5 Z M 2959.5,2216.5 C 2965.89,2218.65 2966.06,2221.31 2960,2224.5C 2955.53,2221.95 2955.36,2219.29 2959.5,2216.5 Z M 246.5,2232.5 C 251.493,2233 252.493,2235.16 249.5,2239C 244.148,2239.18 243.148,2237.01 246.5,2232.5 Z M 586.5,2232.5 C 592.096,2233.61 592.762,2235.94 588.5,2239.5C 584.167,2238.17 583.501,2235.84 586.5,2232.5 Z M 927.5,2232.5 C 932.682,2232.79 934.016,2234.95 931.5,2239C 925.738,2239.42 924.404,2237.25 927.5,2232.5 Z M 1268.5,2232.5 C 1271.83,2231.83 1273.83,2233.17 1274.5,2236.5C 1272.4,2239.98 1269.9,2240.32 1267,2237.5C 1266.88,2235.72 1267.38,2234.05 1268.5,2232.5 Z M 1610.5,2232.5 C 1615.49,2233 1616.49,2235.16 1613.5,2239C 1610.47,2240.07 1608.47,2239.07 1607.5,2236C 1608.36,2234.64 1609.36,2233.47 1610.5,2232.5 Z M 1951.5,2232.5 C 1956.49,2233 1957.49,2235.16 1954.5,2239C 1949.38,2238.82 1948.38,2236.66 1951.5,2232.5 Z M 2292.5,2232.5 C 2295.08,2232.57 2297.08,2233.74 2298.5,2236C 2296.66,2239.92 2294.16,2240.42 2291,2237.5C 2290.39,2235.5 2290.89,2233.84 2292.5,2232.5 Z M 2633.5,2232.5 C 2638.65,2232.65 2639.98,2234.82 2637.5,2239C 2631.74,2239.42 2630.4,2237.25 2633.5,2232.5 Z M 2974.5,2232.5 C 2980.02,2232.47 2981.35,2234.64 2978.5,2239C 2973.18,2239.18 2971.84,2237.01 2974.5,2232.5 Z M 246.5,2542.5 C 250.533,2542.69 252.033,2544.69 251,2548.5C 247.749,2551.46 245.582,2550.79 244.5,2546.5C 244.752,2544.93 245.418,2543.59 246.5,2542.5 Z M 587.5,2542.5 C 592.573,2544.81 592.739,2547.47 588,2550.5C 583.536,2548.01 583.369,2545.34 587.5,2542.5 Z M 928.5,2542.5 C 933.341,2544.54 933.675,2547.21 929.5,2550.5C 924.691,2548.26 924.357,2545.59 928.5,2542.5 Z M 1269.5,2542.5 C 1275.53,2544.54 1275.87,2547.21 1270.5,2550.5C 1265.69,2548.26 1265.36,2545.59 1269.5,2542.5 Z M 1610.5,2542.5 C 1616.53,2544.54 1616.87,2547.21 1611.5,2550.5C 1607.93,2548.23 1607.6,2545.57 1610.5,2542.5 Z M 1952.5,2542.5 C 1957.59,2544.85 1957.75,2547.51 1953,2550.5C 1948.54,2548.01 1948.37,2545.34 1952.5,2542.5 Z M 2293.5,2542.5 C 2298.34,2544.54 2298.67,2547.21 2294.5,2550.5C 2289.61,2548.28 2289.27,2545.62 2293.5,2542.5 Z M 2634.5,2542.5 C 2640.53,2544.54 2640.87,2547.21 2635.5,2550.5C 2630.69,2548.26 2630.36,2545.59 2634.5,2542.5 Z M 2975.5,2542.5 C 2981.53,2544.54 2981.87,2547.21 2976.5,2550.5C 2971.69,2548.26 2971.36,2545.59 2975.5,2542.5 Z M 260.5,2558.5 C 266.034,2560.82 266.367,2563.49 261.5,2566.5C 256.691,2564.26 256.357,2561.59 260.5,2558.5 Z M 570.5,2558.5 C 576.532,2560.54 576.865,2563.21 571.5,2566.5C 567.933,2564.23 567.6,2561.57 570.5,2558.5 Z M 601.5,2558.5 C 607.564,2560.6 607.898,2563.26 602.5,2566.5C 597.723,2564.3 597.389,2561.64 601.5,2558.5 Z M 912.5,2558.5 C 917.594,2560.87 917.761,2563.54 913,2566.5C 908.544,2564.03 908.377,2561.36 912.5,2558.5 Z M 942.5,2558.5 C 948.532,2560.54 948.865,2563.21 943.5,2566.5C 939.933,2564.23 939.6,2561.57 942.5,2558.5 Z M 1253.5,2558.5 C 1258.35,2560.58 1258.69,2563.25 1254.5,2566.5C 1249.52,2564.44 1249.18,2561.77 1253.5,2558.5 Z M 1284.5,2558.5 C 1289.59,2560.87 1289.76,2563.54 1285,2566.5C 1280.54,2564.03 1280.38,2561.36 1284.5,2558.5 Z M 1594.5,2558.5 C 1600.53,2560.54 1600.87,2563.21 1595.5,2566.5C 1590.69,2564.26 1590.36,2561.59 1594.5,2558.5 Z M 1625.5,2558.5 C 1630.34,2560.54 1630.67,2563.21 1626.5,2566.5C 1621.52,2564.44 1621.18,2561.77 1625.5,2558.5 Z M 1935.5,2558.5 C 1941.53,2560.54 1941.87,2563.21 1936.5,2566.5C 1931.69,2564.26 1931.36,2561.59 1935.5,2558.5 Z M 1966.5,2558.5 C 1972.53,2560.54 1972.87,2563.21 1967.5,2566.5C 1962.72,2564.3 1962.39,2561.64 1966.5,2558.5 Z M 2277.5,2558.5 C 2282.82,2561.12 2282.82,2563.79 2277.5,2566.5C 2273.53,2563.74 2273.53,2561.08 2277.5,2558.5 Z M 2307.5,2558.5 C 2313.53,2560.54 2313.87,2563.21 2308.5,2566.5C 2303.69,2564.26 2303.36,2561.59 2307.5,2558.5 Z M 2618.5,2558.5 C 2623.35,2560.58 2623.69,2563.25 2619.5,2566.5C 2614.61,2564.28 2614.27,2561.62 2618.5,2558.5 Z M 2649.5,2558.5 C 2654.82,2561.12 2654.82,2563.79 2649.5,2566.5C 2645.53,2563.74 2645.53,2561.08 2649.5,2558.5 Z M 2959.5,2558.5 C 2965.03,2560.82 2965.37,2563.49 2960.5,2566.5C 2955.69,2564.26 2955.36,2561.59 2959.5,2558.5 Z M 246.5,2574.5 C 252.496,2576.01 252.996,2578.67 248,2582.5C 243.999,2580.5 243.499,2577.83 246.5,2574.5 Z M 586.5,2574.5 C 589.352,2574.35 591.019,2575.69 591.5,2578.5C 589.167,2583.83 586.833,2583.83 584.5,2578.5C 584.752,2576.93 585.418,2575.59 586.5,2574.5 Z M 928.5,2574.5 C 934.893,2576.65 935.059,2579.31 929,2582.5C 924.698,2579.85 924.531,2577.19 928.5,2574.5 Z M 1269.5,2574.5 C 1275.5,2576.49 1275.83,2579.16 1270.5,2582.5C 1265.66,2580.21 1265.33,2577.54 1269.5,2574.5 Z M 1610.5,2574.5 C 1616.52,2576.07 1617.02,2578.74 1612,2582.5C 1607.32,2580.25 1606.82,2577.59 1610.5,2574.5 Z M 1951.5,2574.5 C 1954.35,2574.35 1956.02,2575.69 1956.5,2578.5C 1954.17,2583.83 1951.83,2583.83 1949.5,2578.5C 1949.75,2576.93 1950.42,2575.59 1951.5,2574.5 Z M 2292.5,2574.5 C 2295.35,2574.35 2297.02,2575.69 2297.5,2578.5C 2295,2583.89 2292.67,2583.72 2290.5,2578C 2290.98,2576.7 2291.64,2575.53 2292.5,2574.5 Z M 2634.5,2574.5 C 2640.79,2576.75 2640.96,2579.42 2635,2582.5C 2630.53,2579.95 2630.36,2577.29 2634.5,2574.5 Z M 2975.5,2574.5 C 2981.21,2576.24 2981.71,2578.91 2977,2582.5C 2971.82,2580.52 2971.32,2577.85 2975.5,2574.5 Z M 247.5,2884.5 C 252.42,2887.04 252.586,2889.7 248,2892.5C 243.544,2890.03 243.377,2887.36 247.5,2884.5 Z M 587.5,2884.5 C 592.594,2886.87 592.761,2889.54 588,2892.5C 583.592,2890.18 583.425,2887.51 587.5,2884.5 Z M 928.5,2884.5 C 934.397,2887.14 934.564,2889.8 929,2892.5C 927.167,2892 926,2890.83 925.5,2889C 926.315,2887.36 927.315,2885.86 928.5,2884.5 Z M 1611.5,2884.5 C 1616.44,2887.09 1616.61,2889.76 1612,2892.5C 1606.43,2890.22 1606.26,2887.55 1611.5,2884.5 Z M 1952.5,2884.5 C 1957.42,2887.04 1957.59,2889.7 1953,2892.5C 1948.54,2890.03 1948.38,2887.36 1952.5,2884.5 Z M 2293.5,2884.5 C 2298.59,2886.87 2298.76,2889.54 2294,2892.5C 2289.59,2890.18 2289.43,2887.51 2293.5,2884.5 Z M 1268.5,2885.5 C 1275.4,2886.28 1276.07,2888.61 1270.5,2892.5C 1266.5,2890.89 1265.84,2888.55 1268.5,2885.5 Z M 2633.5,2885.5 C 2636.55,2884.92 2638.55,2886.09 2639.5,2889C 2636.57,2893.71 2633.91,2893.54 2631.5,2888.5C 2632.19,2887.48 2632.86,2886.48 2633.5,2885.5 Z M 2974.5,2885.5 C 2981.4,2886.28 2982.07,2888.61 2976.5,2892.5C 2972.49,2890.9 2971.82,2888.56 2974.5,2885.5 Z M 912.5,2900.5 C 917.42,2903.04 917.586,2905.7 913,2908.5C 908.544,2906.03 908.377,2903.36 912.5,2900.5 Z M 1253.5,2900.5 C 1258.59,2902.87 1258.76,2905.54 1254,2908.5C 1252.17,2908 1251,2906.83 1250.5,2905C 1251.31,2903.36 1252.31,2901.86 1253.5,2900.5 Z M 1284.5,2900.5 C 1289.59,2902.87 1289.76,2905.54 1285,2908.5C 1280.54,2906.03 1280.38,2903.36 1284.5,2900.5 Z M 2277.5,2900.5 C 2282.44,2903.09 2282.61,2905.76 2278,2908.5C 2273.54,2906.03 2273.38,2903.36 2277.5,2900.5 Z M 2618.5,2900.5 C 2623.59,2902.87 2623.76,2905.54 2619,2908.5C 2614.59,2906.18 2614.43,2903.51 2618.5,2900.5 Z M 2649.5,2900.5 C 2654.44,2903.09 2654.61,2905.76 2650,2908.5C 2645.54,2906.03 2645.38,2903.36 2649.5,2900.5 Z M 259.5,2901.5 C 262.55,2900.92 264.55,2902.09 265.5,2905C 263.492,2908.68 260.992,2909.18 258,2906.5C 257.387,2904.5 257.887,2902.84 259.5,2901.5 Z M 569.5,2901.5 C 575.016,2901.47 576.349,2903.64 573.5,2908C 568.124,2908.07 566.791,2905.9 569.5,2901.5 Z M 600.5,2901.5 C 605.975,2901.44 607.309,2903.61 604.5,2908C 599.124,2908.07 597.791,2905.9 600.5,2901.5 Z M 941.5,2901.5 C 947.016,2901.47 948.349,2903.64 945.5,2908C 940.428,2907.8 939.094,2905.64 941.5,2901.5 Z M 1593.5,2901.5 C 1596.55,2900.92 1598.55,2902.09 1599.5,2905C 1596.4,2909.77 1593.73,2909.61 1591.5,2904.5C 1592.19,2903.48 1592.86,2902.48 1593.5,2901.5 Z M 1624.5,2901.5 C 1627.55,2900.92 1629.55,2902.09 1630.5,2905C 1628.45,2908.7 1625.95,2909.2 1623,2906.5C 1622.39,2904.5 1622.89,2902.84 1624.5,2901.5 Z M 1934.5,2901.5 C 1939.98,2901.44 1941.31,2903.61 1938.5,2908C 1933.12,2908.07 1931.79,2905.9 1934.5,2901.5 Z M 1965.5,2901.5 C 1968.55,2900.92 1970.55,2902.09 1971.5,2905C 1968.4,2909.77 1965.73,2909.61 1963.5,2904.5C 1964.19,2903.48 1964.86,2902.48 1965.5,2901.5 Z M 2306.5,2901.5 C 2312.02,2901.47 2313.35,2903.64 2310.5,2908C 2305.12,2908.07 2303.79,2905.9 2306.5,2901.5 Z M 2958.5,2901.5 C 2961.55,2900.92 2963.55,2902.09 2964.5,2905C 2962.49,2908.68 2959.99,2909.18 2957,2906.5C 2956.39,2904.5 2956.89,2902.84 2958.5,2901.5 Z M 247.5,2916.5 C 252.594,2918.87 252.761,2921.54 248,2924.5C 243.544,2922.03 243.377,2919.36 247.5,2916.5 Z M 587.5,2916.5 C 592.594,2918.87 592.761,2921.54 588,2924.5C 583.544,2922.03 583.377,2919.36 587.5,2916.5 Z M 928.5,2916.5 C 934.06,2918.86 934.393,2921.53 929.5,2924.5C 924.691,2922.26 924.357,2919.59 928.5,2916.5 Z M 1269.5,2916.5 C 1275.56,2918.6 1275.9,2921.26 1270.5,2924.5C 1265.72,2922.3 1265.39,2919.64 1269.5,2916.5 Z M 1611.5,2916.5 C 1616.81,2919.13 1616.81,2921.79 1611.5,2924.5C 1606.65,2921.97 1606.65,2919.3 1611.5,2916.5 Z M 1952.5,2916.5 C 1957.59,2918.87 1957.76,2921.54 1953,2924.5C 1948.54,2922.03 1948.38,2919.36 1952.5,2916.5 Z M 2293.5,2916.5 C 2298.35,2918.58 2298.69,2921.25 2294.5,2924.5C 2289.52,2922.44 2289.18,2919.77 2293.5,2916.5 Z M 2634.5,2916.5 C 2640.53,2918.54 2640.87,2921.21 2635.5,2924.5C 2630.72,2922.3 2630.39,2919.64 2634.5,2916.5 Z M 2975.5,2916.5 C 2981.53,2918.54 2981.87,2921.21 2976.5,2924.5C 2971.69,2922.26 2971.36,2919.59 2975.5,2916.5 Z M 246.5,3227.5 C 251.493,3228 252.493,3230.16 249.5,3234C 246.906,3234.45 244.906,3233.45 243.5,3231C 244.365,3229.64 245.365,3228.47 246.5,3227.5 Z M 586.5,3227.5 C 591.493,3228 592.493,3230.16 589.5,3234C 584.382,3233.82 583.382,3231.66 586.5,3227.5 Z M 927.5,3227.5 C 932.651,3227.65 933.984,3229.82 931.5,3234C 925.738,3234.42 924.404,3232.25 927.5,3227.5 Z M 1268.5,3227.5 C 1273.65,3227.65 1274.98,3229.82 1272.5,3234C 1267.18,3234.18 1265.84,3232.01 1268.5,3227.5 Z M 1609.5,3227.5 C 1615.02,3227.47 1616.35,3229.64 1613.5,3234C 1608.18,3234.18 1606.84,3232.01 1609.5,3227.5 Z M 1951.5,3227.5 C 1956.49,3228 1957.49,3230.16 1954.5,3234C 1949.38,3233.82 1948.38,3231.66 1951.5,3227.5 Z M 2292.5,3227.5 C 2295.55,3226.92 2297.55,3228.09 2298.5,3231C 2296.49,3234.68 2293.99,3235.18 2291,3232.5C 2290.39,3230.5 2290.89,3228.84 2292.5,3227.5 Z M 2633.5,3227.5 C 2638.65,3227.65 2639.98,3229.82 2637.5,3234C 2631.74,3234.42 2630.4,3232.25 2633.5,3227.5 Z M 2974.5,3227.5 C 2980.02,3227.47 2981.35,3229.64 2978.5,3234C 2973.18,3234.18 2971.84,3232.01 2974.5,3227.5 Z M 259.5,3243.5 C 264.651,3243.65 265.984,3245.82 263.5,3250C 257.738,3250.42 256.404,3248.25 259.5,3243.5 Z M 569.5,3243.5 C 575.016,3243.47 576.349,3245.64 573.5,3250C 568.177,3250.18 566.843,3248.01 569.5,3243.5 Z M 600.5,3243.5 C 603.833,3242.83 605.833,3244.17 606.5,3247.5C 603.567,3251.6 600.901,3251.43 598.5,3247C 599.305,3245.89 599.972,3244.72 600.5,3243.5 Z M 911.5,3243.5 C 916.493,3244 917.493,3246.16 914.5,3250C 909.382,3249.82 908.382,3247.66 911.5,3243.5 Z M 942.5,3243.5 C 947.493,3244 948.493,3246.16 945.5,3250C 942.469,3251.07 940.469,3250.07 939.5,3247C 940.365,3245.64 941.365,3244.47 942.5,3243.5 Z M 1252.5,3243.5 C 1257.68,3243.79 1259.02,3245.95 1256.5,3250C 1250.74,3250.42 1249.4,3248.25 1252.5,3243.5 Z M 1283.5,3243.5 C 1288.49,3244 1289.49,3246.16 1286.5,3250C 1281.38,3249.82 1280.38,3247.66 1283.5,3243.5 Z M 1593.5,3243.5 C 1598.65,3243.65 1599.98,3245.82 1597.5,3250C 1591.74,3250.42 1590.4,3248.25 1593.5,3243.5 Z M 1624.5,3243.5 C 1629.68,3243.79 1631.02,3245.95 1628.5,3250C 1622.74,3250.42 1621.4,3248.25 1624.5,3243.5 Z M 1934.5,3243.5 C 1940.02,3243.47 1941.35,3245.64 1938.5,3250C 1933.18,3250.18 1931.84,3248.01 1934.5,3243.5 Z M 1965.5,3243.5 C 1970.65,3243.65 1971.98,3245.82 1969.5,3250C 1963.74,3250.42 1962.4,3248.25 1965.5,3243.5 Z M 2276.5,3243.5 C 2281.49,3244 2282.49,3246.16 2279.5,3250C 2276.47,3251.07 2274.47,3250.07 2273.5,3247C 2274.71,3245.96 2275.71,3244.79 2276.5,3243.5 Z M 2306.5,3243.5 C 2312.02,3243.47 2313.35,3245.64 2310.5,3250C 2305.18,3250.18 2303.84,3248.01 2306.5,3243.5 Z M 2617.5,3243.5 C 2622.49,3244 2623.49,3246.16 2620.5,3250C 2615.38,3249.82 2614.38,3247.66 2617.5,3243.5 Z M 2648.5,3243.5 C 2653.49,3244 2654.49,3246.16 2651.5,3250C 2646.15,3250.18 2645.15,3248.01 2648.5,3243.5 Z M 2958.5,3243.5 C 2963.65,3243.65 2964.98,3245.82 2962.5,3250C 2956.74,3250.42 2955.4,3248.25 2958.5,3243.5 Z M 587.5,3258.5 C 592.594,3260.87 592.761,3263.54 588,3266.5C 586.167,3266 585,3264.83 584.5,3263C 585.315,3261.36 586.315,3259.86 587.5,3258.5 Z M 1952.5,3258.5 C 1957.44,3261.09 1957.61,3263.76 1953,3266.5C 1948.54,3264.03 1948.38,3261.36 1952.5,3258.5 Z M 245.5,3259.5 C 251.016,3259.47 252.349,3261.64 249.5,3266C 244.791,3266.08 243.458,3263.92 245.5,3259.5 Z M 927.5,3259.5 C 930.55,3258.92 932.55,3260.09 933.5,3263C 931.492,3266.68 928.992,3267.18 926,3264.5C 925.387,3262.5 925.887,3260.84 927.5,3259.5 Z M 1268.5,3259.5 C 1273.98,3259.44 1275.31,3261.61 1272.5,3266C 1269.19,3267.16 1267.19,3266 1266.5,3262.5C 1267.19,3261.48 1267.86,3260.48 1268.5,3259.5 Z M 1609.5,3259.5 C 1615.02,3259.47 1616.35,3261.64 1613.5,3266C 1608.12,3266.07 1606.79,3263.9 1609.5,3259.5 Z M 2292.5,3259.5 C 2297.75,3259.64 2298.75,3261.81 2295.5,3266C 2290.38,3265.82 2289.38,3263.66 2292.5,3259.5 Z M 2633.5,3259.5 C 2636.55,3258.92 2638.55,3260.09 2639.5,3263C 2636.4,3267.77 2633.73,3267.61 2631.5,3262.5C 2632.19,3261.48 2632.86,3260.48 2633.5,3259.5 Z M 2974.5,3259.5 C 2980.02,3259.47 2981.35,3261.64 2978.5,3266C 2973.12,3266.07 2971.79,3263.9 2974.5,3259.5 Z M 246.5,3569.5 C 252.496,3571.01 252.996,3573.67 248,3577.5C 243.999,3575.5 243.499,3572.83 246.5,3569.5 Z M 586.5,3569.5 C 589.352,3569.35 591.019,3570.69 591.5,3573.5C 589,3578.89 586.667,3578.72 584.5,3573C 584.978,3571.7 585.645,3570.53 586.5,3569.5 Z M 927.5,3569.5 C 930.084,3569.57 932.084,3570.74 933.5,3573C 931.665,3576.92 929.165,3577.42 926,3574.5C 925.387,3572.5 925.887,3570.84 927.5,3569.5 Z M 1269.5,3569.5 C 1274.03,3570.37 1275.03,3572.54 1272.5,3576C 1266.14,3576.12 1265.14,3573.95 1269.5,3569.5 Z M 1610.5,3569.5 C 1616.48,3570.95 1616.98,3573.62 1612,3577.5C 1607.32,3575.25 1606.82,3572.59 1610.5,3569.5 Z M 1951.5,3569.5 C 1957.5,3571.01 1958,3573.67 1953,3577.5C 1949,3575.5 1948.5,3572.83 1951.5,3569.5 Z M 2292.5,3569.5 C 2295.35,3569.35 2297.02,3570.69 2297.5,3573.5C 2295.04,3578.94 2292.71,3578.78 2290.5,3573C 2290.98,3571.7 2291.64,3570.53 2292.5,3569.5 Z M 2633.5,3569.5 C 2638.68,3569.79 2640.02,3571.95 2637.5,3576C 2631.78,3576.45 2630.45,3574.29 2633.5,3569.5 Z M 2975.5,3569.5 C 2978.32,3569.32 2979.99,3570.65 2980.5,3573.5C 2977.57,3577.6 2974.9,3577.43 2972.5,3573C 2973.36,3571.64 2974.36,3570.47 2975.5,3569.5 Z M 259.5,3585.5 C 266.648,3587.11 267.148,3589.78 261,3593.5C 257.192,3591.29 256.692,3588.62 259.5,3585.5 Z M 570.5,3585.5 C 576.476,3586.95 576.976,3589.62 572,3593.5C 567.323,3591.25 566.823,3588.59 570.5,3585.5 Z M 601.5,3585.5 C 607.209,3587.24 607.709,3589.91 603,3593.5C 597.789,3591.47 597.289,3588.81 601.5,3585.5 Z M 911.5,3585.5 C 914.352,3585.35 916.019,3586.69 916.5,3589.5C 914.167,3594.83 911.833,3594.83 909.5,3589.5C 909.752,3587.93 910.418,3586.59 911.5,3585.5 Z M 942.5,3585.5 C 948.476,3586.95 948.976,3589.62 944,3593.5C 939.323,3591.25 938.823,3588.59 942.5,3585.5 Z M 1252.5,3585.5 C 1255.35,3585.35 1257.02,3586.69 1257.5,3589.5C 1255,3594.89 1252.67,3594.72 1250.5,3589C 1250.98,3587.7 1251.64,3586.53 1252.5,3585.5 Z M 1283.5,3585.5 C 1286.35,3585.35 1288.02,3586.69 1288.5,3589.5C 1286.17,3594.83 1283.83,3594.83 1281.5,3589.5C 1281.75,3587.93 1282.42,3586.59 1283.5,3585.5 Z M 1594.5,3585.5 C 1600.79,3587.75 1600.96,3590.42 1595,3593.5C 1590.53,3590.95 1590.36,3588.29 1594.5,3585.5 Z M 1624.5,3585.5 C 1627.35,3585.35 1629.02,3586.69 1629.5,3589.5C 1627,3594.89 1624.67,3594.72 1622.5,3589C 1622.98,3587.7 1623.64,3586.53 1624.5,3585.5 Z M 1935.5,3585.5 C 1941.21,3587.24 1941.71,3589.91 1937,3593.5C 1932.29,3591.21 1931.79,3588.54 1935.5,3585.5 Z M 1966.5,3585.5 C 1972.79,3587.75 1972.96,3590.42 1967,3593.5C 1962.53,3590.95 1962.36,3588.29 1966.5,3585.5 Z M 2276.5,3585.5 C 2282.5,3587.01 2283,3589.67 2278,3593.5C 2274,3591.5 2273.5,3588.83 2276.5,3585.5 Z M 2307.5,3585.5 C 2313.21,3587.24 2313.71,3589.91 2309,3593.5C 2304.32,3591.25 2303.82,3588.59 2307.5,3585.5 Z M 2617.5,3585.5 C 2620.35,3585.35 2622.02,3586.69 2622.5,3589.5C 2620,3594.89 2617.67,3594.72 2615.5,3589C 2615.98,3587.7 2616.64,3586.53 2617.5,3585.5 Z M 2648.5,3585.5 C 2654.5,3587.01 2655,3589.67 2650,3593.5C 2646,3591.5 2645.5,3588.83 2648.5,3585.5 Z M 2958.5,3585.5 C 2965.65,3587.11 2966.15,3589.78 2960,3593.5C 2956.19,3591.29 2955.69,3588.62 2958.5,3585.5 Z"/></g>
</svg>
